<?xml version="1.0" encoding="UTF-8" standalone="no"?>
<svg
   id="Group_222"
   data-name="Group 222"
   width="24.738"
   height="43.032"
   viewBox="0 0 24.738 43.032"
   version="1.1"
   sodipodi:docname="que_icon.svg"
   inkscape:version="1.1.2 (b8e25be833, 2022-02-05)"
   xmlns:inkscape="http://www.inkscape.org/namespaces/inkscape"
   xmlns:sodipodi="http://sodipodi.sourceforge.net/DTD/sodipodi-0.dtd"
   xmlns="http://www.w3.org/2000/svg"
   xmlns:svg="http://www.w3.org/2000/svg">
  <defs
     id="defs6" />
  <sodipodi:namedview
     id="namedview4"
     pagecolor="#ffffff"
     bordercolor="#666666"
     borderopacity="1.0"
     inkscape:pageshadow="2"
     inkscape:pageopacity="0.0"
     inkscape:pagecheckerboard="0"
     showgrid="false"
     inkscape:zoom="16.708495"
     inkscape:cx="9.3066429"
     inkscape:cy="21.545926"
     inkscape:window-width="1536"
     inkscape:window-height="953"
     inkscape:window-x="-8"
     inkscape:window-y="-8"
     inkscape:window-maximized="1"
     inkscape:current-layer="Group_222" />
  <path
     id="Path_26"
     data-name="Path 26"
     d="M16.8,25.309c1.744-3.148,5.1-5.005,7.044-7.791,2.061-2.922.906-8.38-4.937-8.38-3.828,0-5.707,2.9-6.5,5.3L6.54,11.969A12.818,12.818,0,0,1,18.884,3c5.322,0,8.969,2.423,10.826,5.458,1.585,2.6,2.514,7.474.068,11.1-2.718,4.009-5.322,5.232-6.727,7.814-.566,1.042-.793,1.721-.793,5.073H15.713C15.69,30.677,15.418,27.8,16.8,25.309ZM23.436,41.5a4.53,4.53,0,1,1-4.53-4.53A4.543,4.543,0,0,1,23.436,41.5Z"
     transform="translate(-6.54 -3)"
     fill="#6563ff"
     style="fill:#ff4757;fill-opacity:1" />
</svg>
